<svg width="395.101" height="95" viewBox="0 0 395.101 95" xmlns="http://www.w3.org/2000/svg"><g id="svgGroup" stroke-linecap="round" fill-rule="evenodd" font-size="20pt" stroke="#fec918" stroke-width="0.25mm" fill="#fec918" style="stroke:#fec918;stroke-width:0.25mm;fill:#fec918"><path d="M 62.7 32.8 L 67.1 28 Q 72.1 22.5 76.55 17.15 A 225.573 225.573 0 0 1 84.835 7.749 A 248.732 248.732 0 0 1 86.1 6.4 A 25.393 25.393 0 0 0 87.742 4.6 A 20.174 20.174 0 0 0 88.8 3.2 A 25.723 25.723 0 0 1 90.416 1.1 A 30.917 30.917 0 0 1 91.4 0 A 9.677 9.677 0 0 0 93.457 0.701 A 8.495 8.495 0 0 0 94.4 0.85 A 10.428 10.428 0 0 1 95.992 1.129 A 8.349 8.349 0 0 1 97.1 1.5 A 2.229 2.229 0 0 1 98.113 2.369 Q 98.344 2.723 98.508 3.196 A 5.838 5.838 0 0 1 98.7 3.9 Q 98.866 4.81 98.483 6.096 A 9.718 9.718 0 0 1 98.3 6.65 Q 97.748 8.167 97.196 8.966 A 4.254 4.254 0 0 1 97.1 9.1 Q 95.2 12 93.05 15.55 Q 90.9 19.1 88.8 22.6 Q 86.7 26.1 85.05 28.9 Q 83.787 31.044 83.022 32.367 A 167.356 167.356 0 0 0 82.6 33.1 A 10.675 10.675 0 0 1 83.601 33.527 Q 84.102 33.769 84.638 34.083 A 18.743 18.743 0 0 1 85 34.3 A 10.516 10.516 0 0 1 86.818 35.703 A 9.511 9.511 0 0 1 87.25 36.15 A 3.23 3.23 0 0 1 87.78 36.927 Q 88.129 37.661 88 38.5 A 4.323 4.323 0 0 1 88.842 39.541 A 3.508 3.508 0 0 1 89.3 41.3 Q 89.3 42.118 88.526 42.908 A 5.462 5.462 0 0 1 87.9 43.45 A 28.051 28.051 0 0 1 86.427 44.479 Q 85.58 45.033 84.6 45.6 Q 82.7 46.7 81 47.8 Q 80.906 47.894 80.769 47.68 A 1.113 1.113 0 0 1 80.75 47.65 Q 80.631 47.452 80.669 47.348 A 0.131 0.131 0 0 1 80.7 47.3 Q 82.1 46.2 84.05 44.4 A 5.849 5.849 0 0 0 85.77 41.392 Q 85.999 40.438 86 39.309 A 10.899 10.899 0 0 0 86 39.3 A 3.328 3.328 0 0 0 85.376 37.376 A 5.013 5.013 0 0 0 84.65 36.55 A 10.156 10.156 0 0 0 83.084 35.349 A 8.362 8.362 0 0 0 81.8 34.7 A 77.715 77.715 0 0 0 77.666 43.374 A 88.964 88.964 0 0 0 76.65 46 A 108.814 108.814 0 0 0 74.901 51.108 Q 74.103 53.656 73.545 55.953 A 61.378 61.378 0 0 0 73.3 57 Q 73.2 57.8 73.05 58.6 Q 72.9 59.4 72.9 60.2 Q 72.9 61.2 73.25 62.35 Q 73.529 63.265 74.409 63.452 A 2.366 2.366 0 0 0 74.9 63.5 Q 76.589 63.5 78.277 62.11 A 9.977 9.977 0 0 0 78.9 61.55 A 34.108 34.108 0 0 0 80.157 60.263 Q 80.734 59.637 81.19 59.065 A 14.061 14.061 0 0 0 81.9 58.1 A 3.616 3.616 0 0 1 82.175 57.792 Q 82.327 57.641 82.479 57.534 A 1.702 1.702 0 0 1 82.7 57.4 Q 83.1 57.2 82.8 57.9 A 6.84 6.84 0 0 1 82.409 58.712 A 7.737 7.737 0 0 1 82.3 58.9 L 81.7 59.9 A 10.413 10.413 0 0 0 81.306 60.468 Q 80.85 61.169 80.3 62.2 A 16.366 16.366 0 0 1 78.988 64.281 A 14.485 14.485 0 0 1 78.5 64.9 A 3.894 3.894 0 0 1 77.777 65.583 A 2.658 2.658 0 0 1 76.2 66.1 A 2.189 2.189 0 0 1 75.695 66.033 Q 75.175 65.908 74.466 65.553 A 12.562 12.562 0 0 1 73.9 65.25 Q 72.892 64.679 72.155 64.176 A 13.16 13.16 0 0 1 71.5 63.7 A 5.056 5.056 0 0 1 70.56 62.565 A 6.859 6.859 0 0 1 70.05 61.55 A 18.461 18.461 0 0 1 69.687 60.587 Q 69.524 60.114 69.414 59.693 A 8.724 8.724 0 0 1 69.3 59.2 Q 69.3 58.9 69.25 58.6 A 3.407 3.407 0 0 1 69.216 58.318 Q 69.204 58.173 69.201 58.011 A 6.069 6.069 0 0 1 69.2 57.9 Q 69.2 55.65 69.922 52.768 A 36.163 36.163 0 0 1 70.4 51.05 A 91.317 91.317 0 0 1 72.037 46.183 A 114.401 114.401 0 0 1 73.4 42.65 Q 75.2 38.2 77 33.9 Q 76.5 33.9 76 33.85 Q 75.5 33.8 75 33.8 Q 72.1 33.8 69.25 34.25 Q 66.4 34.7 63.5 35.3 A 343.125 343.125 0 0 0 60.265 39.34 Q 58.075 42.116 55.6 45.35 Q 51.2 51.1 46.15 57.05 Q 41.1 63 35.55 68.05 A 65.743 65.743 0 0 1 29.259 73.13 A 53.144 53.144 0 0 1 24.3 76.25 Q 18.6 79.4 13 79.4 Q 9.9 79.4 6.9 78.55 A 11.153 11.153 0 0 1 3.708 77.1 A 9.943 9.943 0 0 1 1.95 75.6 A 7.038 7.038 0 0 1 0.28 72.413 Q 0 71.264 0 69.9 Q 0 69.2 0.6 69.2 A 0.63 0.63 0 0 1 0.876 69.256 Q 1.2 69.413 1.2 70 A 6.161 6.161 0 0 0 1.394 71.589 A 4.345 4.345 0 0 0 2.7 73.75 A 8.401 8.401 0 0 0 5.896 75.535 A 9.929 9.929 0 0 0 6.3 75.65 Q 8.4 76.2 10.1 76.2 Q 11.2 76.2 12.25 76.15 Q 13.3 76.1 14.3 76 Q 20.1 75.2 25.05 72.45 Q 30 69.7 34.25 65.7 Q 38.5 61.7 42.3 57.25 A 73242.049 73242.049 0 0 0 47.831 50.772 A 64888.28 64888.28 0 0 0 49.6 48.7 A 215.7 215.7 0 0 1 50.741 47.327 Q 51.255 46.713 51.832 46.032 A 434.888 434.888 0 0 1 53.05 44.6 L 57.15 39.8 Q 59.2 37.4 60.6 35.8 A 192.423 192.423 0 0 0 48.967 39.076 A 223.271 223.271 0 0 0 44.6 40.5 Q 36.3 43.3 28.2 44.7 Q 26.8 44.9 25.35 45.3 A 10.901 10.901 0 0 1 23.027 45.686 A 9.911 9.911 0 0 1 22.5 45.7 A 5.946 5.946 0 0 1 19.804 45.04 A 7.416 7.416 0 0 1 19.2 44.7 Q 18.084 43.956 17.142 42.564 A 11.494 11.494 0 0 1 17 42.35 A 6.581 6.581 0 0 1 16.274 40.861 A 5.234 5.234 0 0 1 16 39.2 A 2.183 2.183 0 0 1 16.297 38.135 Q 16.731 37.352 17.8 36.55 Q 19.275 35.444 21.387 34.338 A 41.543 41.543 0 0 1 22.35 33.85 Q 25.1 32.5 28.15 31.45 Q 31.2 30.4 33.8 29.75 Q 36.4 29.1 37.7 29.1 A 5.497 5.497 0 0 1 38.077 29.112 Q 38.642 29.151 38.819 29.319 A 0.241 0.241 0 0 1 38.9 29.5 A 0.391 0.391 0 0 1 38.742 29.802 Q 38.43 30.067 37.5 30.2 A 28.692 28.692 0 0 0 36.475 30.427 Q 35.331 30.699 33.817 31.137 A 92.237 92.237 0 0 0 33.6 31.2 Q 31.2 31.9 28.65 32.85 A 63.913 63.913 0 0 0 25.924 33.935 A 50.474 50.474 0 0 0 24 34.8 A 21.907 21.907 0 0 0 22.507 35.555 Q 21.009 36.391 20.15 37.25 A 6.344 6.344 0 0 0 19.553 37.932 Q 18.9 38.805 18.9 39.6 Q 18.9 41.452 22.072 41.589 A 12.228 12.228 0 0 0 22.6 41.6 Q 23.1 41.6 23.6 41.55 Q 24.1 41.5 24.7 41.4 Q 31.1 40.4 37.55 38.75 Q 44 37.1 50.3 35.4 Q 56.6 33.7 62.7 32.8 Z M 224.8 32.8 L 229.2 28 Q 234.2 22.5 238.65 17.15 A 225.573 225.573 0 0 1 246.935 7.749 A 248.732 248.732 0 0 1 248.2 6.4 A 25.393 25.393 0 0 0 249.842 4.6 A 20.174 20.174 0 0 0 250.9 3.2 A 25.723 25.723 0 0 1 252.516 1.1 A 30.917 30.917 0 0 1 253.5 0 A 9.677 9.677 0 0 0 255.557 0.701 A 8.495 8.495 0 0 0 256.5 0.85 A 10.428 10.428 0 0 1 258.092 1.129 A 8.349 8.349 0 0 1 259.2 1.5 A 2.229 2.229 0 0 1 260.213 2.369 Q 260.444 2.723 260.608 3.196 A 5.838 5.838 0 0 1 260.8 3.9 Q 260.966 4.81 260.583 6.096 A 9.718 9.718 0 0 1 260.4 6.65 Q 259.848 8.167 259.296 8.966 A 4.254 4.254 0 0 1 259.2 9.1 Q 257.3 12 255.15 15.55 Q 253 19.1 250.9 22.6 Q 248.8 26.1 247.15 28.9 Q 245.887 31.044 245.122 32.367 A 167.356 167.356 0 0 0 244.7 33.1 A 10.675 10.675 0 0 1 245.701 33.527 Q 246.202 33.769 246.738 34.083 A 18.743 18.743 0 0 1 247.1 34.3 A 10.516 10.516 0 0 1 248.918 35.703 A 9.511 9.511 0 0 1 249.35 36.15 A 3.23 3.23 0 0 1 249.88 36.927 Q 250.229 37.661 250.1 38.5 A 4.323 4.323 0 0 1 250.942 39.541 A 3.508 3.508 0 0 1 251.4 41.3 Q 251.4 42.118 250.626 42.908 A 5.462 5.462 0 0 1 250 43.45 A 28.051 28.051 0 0 1 248.527 44.479 Q 247.68 45.033 246.7 45.6 Q 244.8 46.7 243.1 47.8 Q 243.006 47.894 242.869 47.68 A 1.113 1.113 0 0 1 242.85 47.65 Q 242.731 47.452 242.769 47.348 A 0.131 0.131 0 0 1 242.8 47.3 Q 244.2 46.2 246.15 44.4 A 5.849 5.849 0 0 0 247.87 41.392 Q 248.099 40.438 248.1 39.309 A 10.899 10.899 0 0 0 248.1 39.3 A 3.328 3.328 0 0 0 247.476 37.376 A 5.013 5.013 0 0 0 246.75 36.55 A 10.156 10.156 0 0 0 245.184 35.349 A 8.362 8.362 0 0 0 243.9 34.7 A 77.715 77.715 0 0 0 239.766 43.374 A 88.964 88.964 0 0 0 238.75 46 A 108.814 108.814 0 0 0 237.001 51.108 Q 236.203 53.656 235.645 55.953 A 61.378 61.378 0 0 0 235.4 57 Q 235.3 57.8 235.15 58.6 Q 235 59.4 235 60.2 Q 235 61.2 235.35 62.35 Q 235.629 63.265 236.509 63.452 A 2.366 2.366 0 0 0 237 63.5 Q 238.689 63.5 240.377 62.11 A 9.977 9.977 0 0 0 241 61.55 A 34.108 34.108 0 0 0 242.257 60.263 Q 242.834 59.637 243.29 59.065 A 14.061 14.061 0 0 0 244 58.1 A 3.616 3.616 0 0 1 244.275 57.792 Q 244.427 57.641 244.579 57.534 A 1.702 1.702 0 0 1 244.8 57.4 Q 245.2 57.2 244.9 57.9 A 6.84 6.84 0 0 1 244.509 58.712 A 7.737 7.737 0 0 1 244.4 58.9 L 243.8 59.9 A 10.413 10.413 0 0 0 243.406 60.468 Q 242.95 61.169 242.4 62.2 A 16.366 16.366 0 0 1 241.088 64.281 A 14.485 14.485 0 0 1 240.6 64.9 A 3.894 3.894 0 0 1 239.877 65.583 A 2.658 2.658 0 0 1 238.3 66.1 A 2.189 2.189 0 0 1 237.795 66.033 Q 237.275 65.908 236.566 65.553 A 12.562 12.562 0 0 1 236 65.25 Q 234.992 64.679 234.255 64.176 A 13.16 13.16 0 0 1 233.6 63.7 A 5.056 5.056 0 0 1 232.66 62.565 A 6.859 6.859 0 0 1 232.15 61.55 A 18.461 18.461 0 0 1 231.787 60.587 Q 231.624 60.114 231.514 59.693 A 8.724 8.724 0 0 1 231.4 59.2 Q 231.4 58.9 231.35 58.6 A 3.407 3.407 0 0 1 231.316 58.318 Q 231.304 58.173 231.301 58.011 A 6.069 6.069 0 0 1 231.3 57.9 Q 231.3 55.65 232.022 52.768 A 36.163 36.163 0 0 1 232.5 51.05 A 91.317 91.317 0 0 1 234.137 46.183 A 114.401 114.401 0 0 1 235.5 42.65 Q 237.3 38.2 239.1 33.9 Q 238.6 33.9 238.1 33.85 Q 237.6 33.8 237.1 33.8 Q 234.2 33.8 231.35 34.25 Q 228.5 34.7 225.6 35.3 A 343.125 343.125 0 0 0 222.365 39.34 Q 220.175 42.116 217.7 45.35 Q 213.3 51.1 208.25 57.05 Q 203.2 63 197.65 68.05 A 65.743 65.743 0 0 1 191.359 73.13 A 53.144 53.144 0 0 1 186.4 76.25 Q 180.7 79.4 175.1 79.4 Q 172 79.4 169 78.55 A 11.153 11.153 0 0 1 165.808 77.1 A 9.943 9.943 0 0 1 164.05 75.6 A 7.038 7.038 0 0 1 162.38 72.413 Q 162.1 71.264 162.1 69.9 Q 162.1 69.2 162.7 69.2 A 0.63 0.63 0 0 1 162.976 69.256 Q 163.3 69.413 163.3 70 A 6.161 6.161 0 0 0 163.494 71.589 A 4.345 4.345 0 0 0 164.8 73.75 A 8.401 8.401 0 0 0 167.996 75.535 A 9.929 9.929 0 0 0 168.4 75.65 Q 170.5 76.2 172.2 76.2 Q 173.3 76.2 174.35 76.15 Q 175.4 76.1 176.4 76 Q 182.2 75.2 187.15 72.45 Q 192.1 69.7 196.35 65.7 Q 200.6 61.7 204.4 57.25 A 73242.049 73242.049 0 0 0 209.931 50.772 A 64888.28 64888.28 0 0 0 211.7 48.7 A 215.7 215.7 0 0 1 212.841 47.327 Q 213.355 46.713 213.932 46.032 A 434.888 434.888 0 0 1 215.15 44.6 L 219.25 39.8 Q 221.3 37.4 222.7 35.8 A 192.423 192.423 0 0 0 211.067 39.076 A 223.271 223.271 0 0 0 206.7 40.5 Q 198.4 43.3 190.3 44.7 Q 188.9 44.9 187.45 45.3 A 10.901 10.901 0 0 1 185.127 45.686 A 9.911 9.911 0 0 1 184.6 45.7 A 5.946 5.946 0 0 1 181.904 45.04 A 7.416 7.416 0 0 1 181.3 44.7 Q 180.184 43.956 179.242 42.564 A 11.494 11.494 0 0 1 179.1 42.35 A 6.581 6.581 0 0 1 178.374 40.861 A 5.234 5.234 0 0 1 178.1 39.2 A 2.183 2.183 0 0 1 178.397 38.135 Q 178.831 37.352 179.9 36.55 Q 181.375 35.444 183.487 34.338 A 41.543 41.543 0 0 1 184.45 33.85 Q 187.2 32.5 190.25 31.45 Q 193.3 30.4 195.9 29.75 Q 198.5 29.1 199.8 29.1 A 5.497 5.497 0 0 1 200.177 29.112 Q 200.742 29.151 200.919 29.319 A 0.241 0.241 0 0 1 201 29.5 A 0.391 0.391 0 0 1 200.842 29.802 Q 200.53 30.067 199.6 30.2 A 28.692 28.692 0 0 0 198.575 30.427 Q 197.431 30.699 195.917 31.137 A 92.237 92.237 0 0 0 195.7 31.2 Q 193.3 31.9 190.75 32.85 A 63.913 63.913 0 0 0 188.024 33.935 A 50.474 50.474 0 0 0 186.1 34.8 A 21.907 21.907 0 0 0 184.607 35.555 Q 183.109 36.391 182.25 37.25 A 6.344 6.344 0 0 0 181.653 37.932 Q 181 38.805 181 39.6 Q 181 41.452 184.172 41.589 A 12.228 12.228 0 0 0 184.7 41.6 Q 185.2 41.6 185.7 41.55 Q 186.2 41.5 186.8 41.4 Q 193.2 40.4 199.65 38.75 Q 206.1 37.1 212.4 35.4 Q 218.7 33.7 224.8 32.8 Z M 97.2 55 L 97.2 56.3 A 8.28 8.28 0 0 0 97.823 58.736 Q 98.218 59.686 98.853 60.654 A 14.258 14.258 0 0 0 98.95 60.8 A 5.47 5.47 0 0 0 100.336 62.246 Q 101.555 63.1 103.2 63.1 A 5.826 5.826 0 0 0 105.144 62.752 Q 105.865 62.498 106.602 62.059 A 9.908 9.908 0 0 0 106.7 62 A 12.261 12.261 0 0 0 108.197 60.846 Q 108.893 60.224 109.598 59.439 A 23.159 23.159 0 0 0 110.15 58.8 Q 111.9 56.7 113.45 54.4 Q 114.923 52.215 115.899 50.751 A 491.099 491.099 0 0 0 116 50.6 Q 114.4 54.1 114.4 57.1 Q 114.4 58.495 114.703 59.641 A 6.241 6.241 0 0 0 116.65 62.85 A 9.405 9.405 0 0 0 117.292 63.36 A 7.195 7.195 0 0 0 121.6 64.8 A 16.387 16.387 0 0 0 122.296 64.785 Q 123.636 64.729 124.783 64.448 A 8.727 8.727 0 0 0 127.5 63.3 Q 129.8 61.8 131.9 59.1 A 81.267 81.267 0 0 0 131.979 58.998 Q 133.165 57.479 133.973 56.292 A 25.928 25.928 0 0 0 134.65 55.25 A 249.378 249.378 0 0 0 134.797 55.01 Q 135.632 53.645 136 53 A 0.282 0.282 0 0 0 135.995 52.948 Q 135.977 52.854 135.9 52.7 Q 135.812 52.523 135.646 52.659 A 0.602 0.602 0 0 0 135.6 52.7 A 8.897 8.897 0 0 1 135.364 53.087 Q 134.942 53.745 134.15 54.8 A 134.585 134.585 0 0 1 133.518 55.636 Q 133.215 56.034 132.935 56.394 A 73.152 73.152 0 0 1 132.3 57.2 A 34.706 34.706 0 0 1 131.804 57.782 Q 131.367 58.283 130.855 58.837 A 68.342 68.342 0 0 1 129.8 59.95 A 17.069 17.069 0 0 1 129.182 60.557 A 14.732 14.732 0 0 1 126.6 62.5 A 11.256 11.256 0 0 1 126.456 62.58 A 9.587 9.587 0 0 1 121.8 63.8 Q 120 63.8 118.65 62.85 A 2.811 2.811 0 0 1 117.835 61.96 Q 117.539 61.456 117.407 60.787 A 6.13 6.13 0 0 1 117.3 59.6 A 7.36 7.36 0 0 1 117.3 59.547 Q 117.311 57.984 117.985 55.918 A 24.654 24.654 0 0 1 118.75 53.9 A 34.522 34.522 0 0 1 119.901 51.463 A 27.962 27.962 0 0 1 122.1 47.9 Q 123.9 45.5 125.9 43.45 A 30.577 30.577 0 0 1 126.435 42.915 A 27.186 27.186 0 0 1 130.1 39.9 Q 131.197 39.169 132.145 38.883 A 4.006 4.006 0 0 1 133.3 38.7 A 4.731 4.731 0 0 1 133.511 38.705 Q 134.998 38.771 135.373 39.797 A 2.331 2.331 0 0 1 135.5 40.6 A 2.391 2.391 0 0 1 135.471 40.961 Q 135.4 41.43 135.15 42 Q 134.942 42.475 134.576 42.95 A 6.782 6.782 0 0 1 134 43.6 Q 133.3 44.3 132.35 45.05 Q 131.4 45.8 130.4 46.5 Q 129.4 47.2 128.35 47.8 A 14.805 14.805 0 0 0 128.219 47.876 A 16.04 16.04 0 0 0 126.3 49.2 Q 124.2 50.5 122.15 52.25 A 15.013 15.013 0 0 0 121.24 53.091 Q 120.632 53.704 120.192 54.31 A 6.762 6.762 0 0 0 119.4 55.7 A 1.401 1.401 0 0 0 119.395 55.722 Q 119.312 56.077 119.523 56.054 A 0.303 0.303 0 0 0 119.55 56.05 L 119.8 56 Q 120.5 54.6 122.1 53.35 A 21.369 21.369 0 0 1 123.596 52.285 A 26.975 26.975 0 0 1 125.8 51 L 130.3 48.6 Q 131.4 48 132.45 47.4 A 37.356 37.356 0 0 0 133.092 47.025 A 31.628 31.628 0 0 0 134.4 46.2 A 9.089 9.089 0 0 0 135.49 45.377 A 6.951 6.951 0 0 0 136.95 43.6 A 8.681 8.681 0 0 0 137.155 43.217 Q 137.441 42.646 137.601 42.106 A 4.614 4.614 0 0 0 137.8 40.8 A 3.946 3.946 0 0 0 137.777 40.367 Q 137.637 39.094 136.637 38.447 A 3.672 3.672 0 0 0 135.6 38 L 133 37.4 Q 132.5 37.2 131.95 37 Q 131.4 36.8 131 36.4 A 7.005 7.005 0 0 0 129.514 36.627 Q 127.658 37.11 125.6 38.6 A 25.016 25.016 0 0 0 123.302 40.488 A 30.524 30.524 0 0 0 120.15 43.9 A 35.718 35.718 0 0 0 119.835 44.301 A 32.078 32.078 0 0 0 116 50.6 A 4.201 4.201 0 0 1 116.153 50.371 Q 116.547 49.824 116.8 49.95 Q 117.076 50.088 116.845 50.521 A 1.787 1.787 0 0 1 116.8 50.6 A 31.847 31.847 0 0 1 116.034 51.959 Q 115.319 53.163 114.35 54.6 Q 112.8 56.9 111.15 59.05 Q 109.5 61.2 108.1 62.3 A 11.192 11.192 0 0 1 106.635 63.383 A 8.385 8.385 0 0 1 105.05 64.15 Q 103.5 64.7 102.1 64.7 A 7.189 7.189 0 0 1 97.256 62.838 A 9.239 9.239 0 0 1 97.1 62.7 A 9.465 9.465 0 0 1 94.737 59.288 A 12.694 12.694 0 0 1 94.1 57.3 A 70.877 70.877 0 0 0 88.16 62.907 A 56.507 56.507 0 0 0 84.35 67.4 Q 80.4 72.6 78 78.8 A 9.898 9.898 0 0 1 78.274 78.803 Q 78.77 78.817 78.882 78.886 A 0.099 0.099 0 0 1 78.9 78.9 A 0.169 0.169 0 0 1 78.95 79.023 Q 78.951 79.077 78.925 79.143 A 0.624 0.624 0 0 1 78.9 79.2 Q 78.5 79.9 78.35 80.4 Q 78.2 80.9 77.4 82 A 0.656 0.656 0 0 1 77.073 82.341 Q 76.818 82.472 76.39 82.495 A 3.546 3.546 0 0 1 76.2 82.5 A 2.627 2.627 0 0 1 75.943 82.488 Q 75.816 82.476 75.709 82.45 A 1.158 1.158 0 0 1 75.55 82.4 A 0.198 0.198 0 0 1 75.438 82.28 Q 75.371 82.105 75.472 81.706 A 3.528 3.528 0 0 1 75.5 81.6 A 49.181 49.181 0 0 1 79.123 73.409 A 40.173 40.173 0 0 1 82.75 68 A 73.436 73.436 0 0 1 88.191 61.944 A 97.383 97.383 0 0 1 94 56.6 A 36.766 36.766 0 0 1 93.757 54.107 A 29.422 29.422 0 0 1 93.7 52.3 Q 93.7 51.2 93.75 50.25 Q 93.8 49.3 93.9 48.3 Q 93.498 48.139 93.193 47.978 A 4.795 4.795 0 0 1 93.05 47.9 Q 92.7 47.7 92.7 47.3 A 8.052 8.052 0 0 0 92.81 46.679 Q 92.909 45.979 92.945 45.032 A 25.832 25.832 0 0 0 92.95 44.9 Q 93 43.4 93.2 41.9 Q 93.4 40.6 93.6 39.6 Q 93.795 38.626 94.369 38.411 A 0.897 0.897 0 0 1 94.4 38.4 A 2.007 2.007 0 0 1 94.713 38.274 A 1.788 1.788 0 0 1 94.8 38.25 Q 95 38.2 95.2 38.2 A 3.465 3.465 0 0 1 96.49 38.457 A 4.409 4.409 0 0 1 97 38.7 Q 97.9 39.2 98.6 39.7 Q 98.355 40.68 97.876 43.529 A 259.802 259.802 0 0 0 97.65 44.9 Q 97.087 48.367 97.087 52.735 A 71.023 71.023 0 0 0 97.1 54.1 Q 98.254 53.111 98.932 52.428 A 12.559 12.559 0 0 0 99.2 52.15 A 18.417 18.417 0 0 1 100.163 51.19 A 15.689 15.689 0 0 1 100.6 50.8 A 33.529 33.529 0 0 0 102.043 49.338 Q 102.721 48.612 103.46 47.753 A 76.453 76.453 0 0 0 105 45.9 Q 107.5 42.8 109.6 39.45 A 32.731 32.731 0 0 0 110.929 37.139 Q 111.504 36.029 111.898 35.016 A 14.857 14.857 0 0 0 112.4 33.5 A 1.052 1.052 0 0 1 112.477 33.372 Q 112.589 33.211 112.8 33 Q 113.001 32.799 113.201 32.733 A 0.629 0.629 0 0 1 113.4 32.7 A 0.479 0.479 0 0 1 113.848 32.995 Q 113.966 33.229 113.993 33.646 A 4.039 4.039 0 0 1 114 33.9 A 11.548 11.548 0 0 1 113.172 37.15 Q 112.639 38.459 111.779 39.802 A 20.543 20.543 0 0 1 111.45 40.3 Q 109.2 43.6 106.25 46.5 A 672.917 672.917 0 0 1 103.793 48.904 Q 102.669 49.998 101.66 50.967 A 381.31 381.31 0 0 1 101 51.6 Q 100.2 52.3 99.25 53.15 Q 98.3 54 97.2 55 Z M 142.4 65.3 Q 139.9 65.3 138.1 63.55 A 5.227 5.227 0 0 1 136.872 61.612 Q 136.3 60.098 136.3 57.9 Q 136.3 54.3 137.648 49.56 A 58.491 58.491 0 0 1 138.9 45.7 A 124.296 124.296 0 0 1 142.589 36.665 A 154.609 154.609 0 0 1 145.5 30.6 Q 148.6 24.7 152.1 19.3 Q 155.6 13.9 159 9.65 A 70.758 70.758 0 0 1 161.473 6.716 Q 163.469 4.481 165.25 2.95 Q 167.454 1.056 169.029 0.626 A 3.316 3.316 0 0 1 169.9 0.5 Q 171.6 0.5 172.45 1.4 Q 173.3 2.3 173.95 3.4 Q 174.6 4.5 175.7 5.2 A 6.63 6.63 0 0 1 175.399 6.833 Q 174.926 8.386 173.722 10.338 A 27.54 27.54 0 0 1 173.3 11 Q 171.018 14.473 167.85 18.536 A 160.959 160.959 0 0 1 167.8 18.6 Q 166.192 20.514 163.559 23.63 A 5134.474 5134.474 0 0 1 161.85 25.65 Q 158 30.2 154.2 35 A 120.363 120.363 0 0 0 150.766 39.407 A 96.813 96.813 0 0 0 148.7 42.3 Q 146.553 45.431 145.287 47.601 A 41.743 41.743 0 0 0 145 48.1 A 3.732 3.732 0 0 1 144.89 48.282 Q 144.572 48.771 144.4 48.6 Q 144.229 48.429 144.35 48.113 A 1.247 1.247 0 0 1 144.4 48 A 26.419 26.419 0 0 1 145.137 46.638 Q 145.941 45.244 147.145 43.448 A 90.729 90.729 0 0 1 147.55 42.85 Q 149.7 39.7 152.4 36.1 A 532.774 532.774 0 0 1 157.375 29.57 A 487.342 487.342 0 0 1 157.7 29.15 A 972.021 972.021 0 0 0 159.552 26.757 Q 161.013 24.863 162.2 23.3 A 214.539 214.539 0 0 1 162.974 22.288 Q 164.028 20.917 164.585 20.252 A 15.17 15.17 0 0 1 164.8 20 A 744.627 744.627 0 0 1 166.994 17.234 A 662.788 662.788 0 0 1 167.7 16.35 A 63.176 63.176 0 0 0 169.257 14.325 A 50.904 50.904 0 0 0 170.2 13 Q 171.107 11.639 171.643 10.507 A 11.421 11.421 0 0 0 171.95 9.8 A 11.115 11.115 0 0 0 172.239 8.979 Q 172.5 8.121 172.5 7.5 A 2.892 2.892 0 0 0 172.446 6.916 Q 172.236 5.9 171.2 5.9 Q 170.3 5.9 168.95 6.8 A 9.658 9.658 0 0 0 167.981 7.549 Q 167.016 8.388 165.9 9.7 Q 163.4 12.7 160.05 17.05 A 171.439 171.439 0 0 0 155.804 22.82 A 208.896 208.896 0 0 0 153.2 26.6 Q 149.7 31.8 146.75 37.45 A 75.634 75.634 0 0 0 142.492 47.161 A 68.462 68.462 0 0 0 141.95 48.75 A 38.039 38.039 0 0 0 140.429 55.132 A 31.151 31.151 0 0 0 140.1 59.6 Q 140.1 62 141.1 63 A 3.27 3.27 0 0 0 143.456 64 A 3.89 3.89 0 0 0 143.5 64 Q 144.995 64 146.639 63.156 A 9.898 9.898 0 0 0 146.65 63.15 A 9.25 9.25 0 0 0 148.659 61.769 A 8.25 8.25 0 0 0 149.4 61 A 43.902 43.902 0 0 0 151.714 58.336 A 51.412 51.412 0 0 0 152.75 57 Q 154.4 54.8 155.75 52.85 Q 157.094 50.909 157.695 49.909 A 16.659 16.659 0 0 0 157.7 49.9 A 2.043 2.043 0 0 1 157.836 49.699 Q 157.993 49.497 158.15 49.431 A 0.387 0.387 0 0 1 158.3 49.4 Q 158.77 49.4 158.356 50.108 A 3.738 3.738 0 0 1 158.3 50.2 A 65.454 65.454 0 0 1 156.206 53.494 A 82.04 82.04 0 0 1 154.55 55.85 A 167.301 167.301 0 0 1 153.001 57.943 Q 152.227 58.971 151.522 59.869 A 88.958 88.958 0 0 1 150.7 60.9 Q 149.1 62.9 146.85 64.1 Q 144.6 65.3 142.4 65.3 Z M 297.218 94.809 A 4.666 4.666 0 0 0 298.5 95 A 12.885 12.885 0 0 0 298.706 94.998 Q 300.805 94.965 303.011 94.248 A 20.584 20.584 0 0 0 306.45 92.75 A 37.774 37.774 0 0 0 310.341 90.311 A 48.783 48.783 0 0 0 314.75 86.75 Q 318.9 83 322.65 78.55 Q 326.4 74.1 329.4 69.7 A 106.439 106.439 0 0 0 330.74 67.687 Q 331.802 66.051 332.681 64.552 A 57.002 57.002 0 0 0 334.2 61.8 Q 337.5 61.8 338.4 63.75 A 7.676 7.676 0 0 1 338.929 65.341 Q 339.223 66.697 339.1 68.3 A 1.572 1.572 0 0 0 339.095 68.33 Q 339.031 68.772 339.278 68.901 A 0.485 0.485 0 0 0 339.45 68.95 A 0.528 0.528 0 0 0 339.509 68.953 Q 339.826 68.953 339.95 68.538 A 1.659 1.659 0 0 0 340 68.3 Q 340.1 67.9 340.1 67.5 L 340.1 66.7 Q 340.1 64.4 338.75 62.65 Q 337.4 60.9 334.7 60.5 A 16.063 16.063 0 0 0 335.039 59.843 Q 336.016 57.838 336.7 55.1 A 76.468 76.468 0 0 0 337.251 52.742 A 64.194 64.194 0 0 0 337.95 49 A 92.991 92.991 0 0 0 338.1 48.002 Q 338.32 46.475 338.379 45.628 A 7.794 7.794 0 0 0 338.4 45.1 Q 338.4 44.5 338.05 44 A 0.623 0.623 0 0 0 338.019 43.96 Q 337.724 43.603 336.792 43.523 A 6.96 6.96 0 0 0 336.2 43.5 A 53.94 53.94 0 0 1 336.161 43.553 Q 335.37 44.639 334.15 46.2 A 80.866 80.866 0 0 1 333.79 46.658 Q 333.236 47.357 332.601 48.127 A 141.02 141.02 0 0 1 331.2 49.8 Q 329.4 51.8 327.1 54.05 A 58.669 58.669 0 0 1 325.212 55.815 A 72.442 72.442 0 0 1 321.9 58.6 A 8.183 8.183 0 0 1 321.179 59.126 Q 320.66 59.461 320.163 59.651 A 3.527 3.527 0 0 1 318.9 59.9 A 3.217 3.217 0 0 1 318.424 59.866 Q 317.024 59.657 316.699 58.139 A 4.978 4.978 0 0 1 316.6 57.1 A 4.464 4.464 0 0 1 316.621 56.676 Q 316.725 55.583 317.349 54.114 A 19.469 19.469 0 0 1 318.05 52.65 A 17.353 17.353 0 0 1 319.277 50.683 Q 320.006 49.66 320.966 48.562 A 41.849 41.849 0 0 1 322.9 46.5 Q 325.2 44.2 327.7 42.35 A 41.047 41.047 0 0 1 328.396 41.846 Q 330.496 40.359 332.3 39.5 A 6.22 6.22 0 0 1 332.316 39.494 A 5.693 5.693 0 0 1 333.3 39.2 Q 333.8 39.1 334.3 39.1 Q 335.5 39.1 336.65 39.4 A 5.854 5.854 0 0 1 337.013 39.507 Q 337.528 39.677 337.821 39.9 A 1.086 1.086 0 0 1 338.1 40.2 Q 338.5 40.7 338.7 40.5 A 0.843 0.843 0 0 0 338.74 40.405 Q 338.811 40.205 338.85 39.85 Q 338.889 39.5 338.656 38.817 A 8.737 8.737 0 0 0 338.5 38.4 Q 338.1 37.1 336.65 36.05 A 7.607 7.607 0 0 0 336.183 35.737 Q 335.674 35.423 335.184 35.242 A 3.708 3.708 0 0 0 333.9 35 A 6.799 6.799 0 0 0 332.455 35.164 Q 331.602 35.349 330.673 35.745 A 15.374 15.374 0 0 0 328.9 36.65 A 31.544 31.544 0 0 0 326.807 38 A 38.022 38.022 0 0 0 323.35 40.75 A 60.182 60.182 0 0 0 322.67 41.365 A 54.125 54.125 0 0 0 318.35 45.8 Q 316.1 48.4 314.9 50.4 A 27.361 27.361 0 0 0 314.44 51.226 Q 314.081 51.898 313.805 52.515 A 14.007 14.007 0 0 0 313.3 53.8 Q 313.031 54.609 312.906 55.33 A 6.904 6.904 0 0 0 312.8 56.5 Q 312.8 58.9 314.4 60 A 6.093 6.093 0 0 0 315.867 60.742 A 6.789 6.789 0 0 0 318.1 61.1 A 4.796 4.796 0 0 0 319.468 60.885 Q 320.086 60.7 320.763 60.358 A 12.496 12.496 0 0 0 322.05 59.6 Q 324.3 58.1 326.6 55.8 Q 328.9 53.5 331.05 51.05 A 105.417 105.417 0 0 0 331.642 50.37 Q 332.51 49.363 333.263 48.436 A 60.49 60.49 0 0 0 334.7 46.6 Q 334.7 47.703 334.415 49.329 A 35.715 35.715 0 0 1 334.1 50.9 Q 333.5 53.6 332.7 56.2 A 39.425 39.425 0 0 1 332.545 56.692 Q 331.823 58.935 331.1 60.2 A 90.637 90.637 0 0 0 327.701 61.352 A 105.25 105.25 0 0 0 318.8 65.05 Q 312.5 68 306.8 71.9 Q 305.3 73 302.75 75.1 Q 300.2 77.2 297.6 79.7 A 47.495 47.495 0 0 0 295.338 82.022 A 36.01 36.01 0 0 0 293.2 84.6 A 16.867 16.867 0 0 0 292.79 85.171 Q 291.919 86.439 291.594 87.464 A 3.774 3.774 0 0 0 291.4 88.6 A 4.171 4.171 0 0 0 291.833 90.421 A 6.01 6.01 0 0 0 292.55 91.55 A 9.644 9.644 0 0 0 292.962 92.035 A 10.337 10.337 0 0 0 295.4 94 Q 296.356 94.563 297.218 94.809 Z M 352.056 94.788 A 4.612 4.612 0 0 0 353.4 95 A 12.997 12.997 0 0 0 353.966 94.988 Q 357.512 94.833 361.4 92.75 A 37.273 37.273 0 0 0 365.196 90.403 A 47.45 47.45 0 0 0 369.75 86.75 Q 373.9 83 377.65 78.55 A 112.777 112.777 0 0 0 379.475 76.328 A 97.886 97.886 0 0 0 384.35 69.7 A 112.577 112.577 0 0 0 385.67 67.687 Q 386.717 66.051 387.588 64.552 A 60.952 60.952 0 0 0 389.1 61.8 A 9.194 9.194 0 0 1 390.515 61.901 Q 392.704 62.243 393.4 63.75 A 7.676 7.676 0 0 1 393.929 65.341 Q 394.223 66.697 394.1 68.3 A 1.572 1.572 0 0 0 394.095 68.33 Q 394.031 68.772 394.278 68.901 A 0.485 0.485 0 0 0 394.45 68.95 A 0.528 0.528 0 0 0 394.509 68.953 Q 394.826 68.953 394.95 68.538 A 1.659 1.659 0 0 0 395 68.3 Q 395.1 67.9 395.1 67.5 L 395.1 66.7 Q 395.1 64.4 393.75 62.65 Q 392.4 60.9 389.7 60.5 A 3.125 3.125 0 0 0 389.836 60.24 Q 390.069 59.75 390.452 58.697 A 61.441 61.441 0 0 0 390.7 58 A 57.031 57.031 0 0 0 390.898 57.425 Q 391.506 55.627 392.15 53.35 Q 392.9 50.7 393.45 48 A 35.299 35.299 0 0 0 393.694 46.68 Q 393.846 45.754 393.923 44.938 A 16.536 16.536 0 0 0 394 43.4 Q 394 42.064 393.703 41.371 A 1.481 1.481 0 0 0 393.4 40.9 Q 392.6 40.1 391.2 40.1 Q 391.088 40.1 390.959 40.116 A 2.842 2.842 0 0 0 390.75 40.15 Q 390.617 40.177 390.499 40.189 A 1.906 1.906 0 0 1 390.3 40.2 Q 387.4 44.6 384.3 48.9 Q 381.2 53.2 377.4 57.1 Q 376.2 58.4 374.9 59.2 Q 373.6 60 372.7 60 A 1.403 1.403 0 0 1 372.479 59.984 Q 371.883 59.888 371.743 59.245 A 2.104 2.104 0 0 1 371.7 58.8 A 2.34 2.34 0 0 1 371.705 58.66 Q 371.733 58.18 371.95 57.4 Q 372.106 56.838 372.399 56.158 A 16.753 16.753 0 0 1 372.8 55.3 A 37.515 37.515 0 0 1 374.184 52.62 A 48.759 48.759 0 0 1 376.15 49.45 A 94.459 94.459 0 0 1 377.681 47.24 A 76.881 76.881 0 0 1 380.2 43.9 A 55.574 55.574 0 0 1 381.13 42.766 Q 382.026 41.705 382.694 41.05 A 9.201 9.201 0 0 1 383.3 40.5 Q 382.3 39.7 381.55 39.15 A 3.235 3.235 0 0 0 381.124 38.884 A 2.42 2.42 0 0 0 380 38.6 A 0.456 0.456 0 0 0 379.998 38.6 Q 379.297 38.604 377.35 40.8 Q 375.4 43 372.8 46.8 Q 372.525 47.213 372.392 47.53 A 1.889 1.889 0 0 0 372.3 47.8 A 0.429 0.429 0 0 0 372.245 47.868 Q 372.214 47.916 372.189 47.977 A 0.948 0.948 0 0 0 372.15 48.1 A 0.171 0.171 0 0 0 372.147 48.116 Q 372.124 48.268 372.497 48.06 A 3.763 3.763 0 0 0 372.6 48 Q 372.1 48.8 371.2 50.6 A 26.821 26.821 0 0 0 370.736 51.577 A 30.899 30.899 0 0 0 369.6 54.5 Q 368.9 56.6 368.9 58.4 A 5.865 5.865 0 0 0 368.953 59.213 Q 369.141 60.553 370 61.1 A 3.567 3.567 0 0 0 370.832 61.544 Q 371.766 61.9 373.1 61.9 A 2.725 2.725 0 0 0 373.641 61.844 Q 375.039 61.561 376.75 59.85 A 36.771 36.771 0 0 0 376.816 59.784 Q 378.836 57.754 381 54.95 Q 383.2 52.1 385.1 49.45 Q 387 46.8 388.2 45.5 A 3.269 3.269 0 0 1 388.286 45.417 Q 388.554 45.168 388.793 45.067 A 0.792 0.792 0 0 1 389.1 45 A 0.407 0.407 0 0 1 389.45 45.183 Q 389.506 45.261 389.545 45.374 A 1.405 1.405 0 0 1 389.6 45.6 Q 389.7 46.2 389.7 46.7 Q 389.7 47.803 389.415 49.429 A 35.715 35.715 0 0 1 389.1 51 Q 388.5 53.7 387.7 56.25 Q 387.15 58.003 386.6 59.213 A 12.051 12.051 0 0 1 386.1 60.2 A 70.562 70.562 0 0 0 385.685 60.335 Q 384.223 60.817 382.609 61.418 A 118.321 118.321 0 0 0 379.2 62.75 A 225.388 225.388 0 0 0 376.942 63.685 Q 375.872 64.135 374.919 64.551 A 111.781 111.781 0 0 0 372.8 65.5 Q 370.2 66.8 367.55 68.3 Q 364.9 69.8 361.8 71.9 Q 360.3 73 357.75 75.1 Q 355.2 77.2 352.6 79.7 A 47.495 47.495 0 0 0 350.338 82.022 A 36.01 36.01 0 0 0 348.2 84.6 A 16.867 16.867 0 0 0 347.79 85.171 Q 346.919 86.439 346.594 87.464 A 3.774 3.774 0 0 0 346.4 88.6 A 4.171 4.171 0 0 0 346.833 90.421 A 6.01 6.01 0 0 0 347.55 91.55 Q 348.7 93 350.35 94 A 9.323 9.323 0 0 0 350.899 94.309 Q 351.495 94.617 352.056 94.788 Z M 263.1 34.8 L 263.5 34.8 Q 264.272 34.8 264.547 35.089 A 0.571 0.571 0 0 1 264.7 35.5 Q 264.7 36.114 264.161 37.036 A 8.168 8.168 0 0 1 264 37.3 Q 263.719 37.768 262.738 39.593 A 359.327 359.327 0 0 0 262.6 39.85 A 3023.155 3023.155 0 0 1 261.503 41.893 Q 260.844 43.119 260.1 44.5 A 153.844 153.844 0 0 0 258.448 47.652 A 128.179 128.179 0 0 0 257.55 49.45 Q 256.67 51.249 256.17 52.374 A 29.895 29.895 0 0 0 255.9 53 Q 255.643 53.771 255.643 54.506 A 4.152 4.152 0 0 0 255.65 54.75 Q 255.699 55.576 256.077 55.033 A 1.861 1.861 0 0 0 256.1 55 A 130.038 130.038 0 0 1 258.474 51.555 Q 259.581 50.004 260.617 48.667 A 72.002 72.002 0 0 1 261.3 47.8 Q 263.7 44.8 266.1 42.2 A 122.601 122.601 0 0 1 269.295 38.872 A 148.915 148.915 0 0 1 271.4 36.8 Q 272.4 37.2 273.5 37.2 A 3.379 3.379 0 0 1 274.54 37.355 A 2.907 2.907 0 0 1 275.4 37.8 Q 275.8 38.1 275.8 38.8 A 3.548 3.548 0 0 1 275.677 39.667 Q 275.349 40.952 274.15 42.95 Q 272.5 45.7 270.5 49.1 Q 269.006 51.69 267.512 55.073 A 84.105 84.105 0 0 0 267.5 55.1 Q 266.438 57.506 266.128 59.462 A 9.827 9.827 0 0 0 266 61 A 6.188 6.188 0 0 0 266.063 61.912 Q 266.169 62.619 266.45 63.15 A 1.634 1.634 0 0 0 266.884 63.683 Q 267.206 63.934 267.656 63.986 A 2.127 2.127 0 0 0 267.9 64 A 2.776 2.776 0 0 0 268.71 63.871 Q 269.06 63.764 269.434 63.57 A 6.142 6.142 0 0 0 269.9 63.3 A 4.022 4.022 0 0 0 270.303 63 Q 271.016 62.413 272.414 60.977 A 102.745 102.745 0 0 0 273.4 59.95 A 37.845 37.845 0 0 0 275.473 57.552 Q 276.494 56.275 277.577 54.741 A 84.477 84.477 0 0 0 279.3 52.2 A 3.984 3.984 0 0 1 279.406 52.098 Q 279.56 51.955 279.645 51.915 A 0.138 0.138 0 0 1 279.699 51.9 Q 279.9 51.9 279.9 52.1 Q 279.9 52.3 279.6 52.9 Q 277.108 57.129 274.645 59.96 A 27.355 27.355 0 0 1 273.05 61.65 A 25.626 25.626 0 0 1 271.698 62.877 Q 269.406 64.8 268 64.8 Q 266.369 64.8 265.347 64.19 A 3.126 3.126 0 0 1 264.35 63.25 Q 263.3 61.7 263.3 59.6 A 16.34 16.34 0 0 1 263.916 55.209 A 18.422 18.422 0 0 1 264.05 54.75 Q 264.8 52.3 265.75 50.25 Q 266.7 48.2 267.3 47.1 Q 268.681 44.5 268.94 43.352 A 2.107 2.107 0 0 0 269 42.9 Q 269 41.884 268.146 42.148 A 1.936 1.936 0 0 0 268 42.2 A 2.735 2.735 0 0 0 267.533 42.437 Q 267.059 42.729 266.44 43.289 A 17.646 17.646 0 0 0 265.8 43.9 A 42.846 42.846 0 0 0 264.193 45.602 A 55.114 55.114 0 0 0 262.9 47.1 A 123.136 123.136 0 0 0 261.493 48.819 Q 260.833 49.641 260.259 50.388 A 72.211 72.211 0 0 0 260.25 50.4 A 85.136 85.136 0 0 0 259.788 51.008 Q 259.172 51.826 258.903 52.236 A 4.917 4.917 0 0 0 258.8 52.4 A 65.468 65.468 0 0 0 257.221 54.756 Q 255.822 56.951 255.069 58.615 A 16.833 16.833 0 0 0 254.9 59 Q 253.8 61.6 253.3 62.8 Q 253.105 63.288 252.242 63.3 A 3.154 3.154 0 0 1 252.2 63.3 A 2.365 2.365 0 0 1 251.195 63.066 Q 250.872 62.916 250.549 62.669 A 4.529 4.529 0 0 1 250.4 62.55 A 2.392 2.392 0 0 1 249.619 61.291 Q 249.515 60.901 249.502 60.435 A 4.833 4.833 0 0 1 249.5 60.3 A 2.427 2.427 0 0 1 249.553 59.839 Q 249.702 59.084 250.273 57.744 A 28.917 28.917 0 0 1 250.4 57.45 Q 251.019 56.041 251.827 54.277 A 355.536 355.536 0 0 1 252.6 52.6 Q 253.8 49.9 255 47.15 Q 255.919 45.045 256.544 43.613 A 2705.596 2705.596 0 0 1 256.9 42.8 A 5.808 5.808 0 0 1 256.645 42.569 Q 256.2 42.139 256.2 41.9 A 1.494 1.494 0 0 1 256.214 41.689 Q 256.238 41.525 256.3 41.4 Q 256.5 40.9 257.1 39.75 L 258.3 37.45 A 70.61 70.61 0 0 1 258.511 37.049 Q 258.922 36.274 259.088 36.019 A 2.1 2.1 0 0 1 259.1 36 A 1.978 1.978 0 0 1 259.273 35.9 Q 259.661 35.696 260.615 35.314 A 48.176 48.176 0 0 1 260.65 35.3 A 7.077 7.077 0 0 1 262.117 34.883 A 5.98 5.98 0 0 1 263.1 34.8 Z M 353.8 34.8 L 354.2 34.8 Q 354.972 34.8 355.247 35.089 A 0.571 0.571 0 0 1 355.4 35.5 Q 355.4 36.114 354.861 37.036 A 8.168 8.168 0 0 1 354.7 37.3 Q 354.419 37.768 353.438 39.593 A 359.327 359.327 0 0 0 353.3 39.85 A 3023.155 3023.155 0 0 1 352.203 41.893 Q 351.544 43.119 350.8 44.5 A 153.844 153.844 0 0 0 349.148 47.652 A 128.179 128.179 0 0 0 348.25 49.45 Q 347.37 51.249 346.87 52.374 A 29.895 29.895 0 0 0 346.6 53 Q 346.343 53.771 346.343 54.506 A 4.152 4.152 0 0 0 346.35 54.75 Q 346.399 55.576 346.777 55.033 A 1.861 1.861 0 0 0 346.8 55 A 130.038 130.038 0 0 1 349.174 51.555 Q 350.281 50.004 351.317 48.667 A 72.002 72.002 0 0 1 352 47.8 Q 354.4 44.8 356.8 42.2 A 122.601 122.601 0 0 1 359.995 38.872 A 148.915 148.915 0 0 1 362.1 36.8 Q 363.1 37.2 364.2 37.2 A 3.379 3.379 0 0 1 365.24 37.355 A 2.907 2.907 0 0 1 366.1 37.8 Q 366.5 38.1 366.5 38.8 A 3.548 3.548 0 0 1 366.377 39.667 Q 366.049 40.952 364.85 42.95 Q 363.2 45.7 361.2 49.1 Q 359.706 51.69 358.212 55.073 A 84.105 84.105 0 0 0 358.2 55.1 Q 357.138 57.506 356.828 59.462 A 9.827 9.827 0 0 0 356.7 61 A 6.188 6.188 0 0 0 356.763 61.912 Q 356.869 62.619 357.15 63.15 A 1.634 1.634 0 0 0 357.584 63.683 Q 357.906 63.934 358.356 63.986 A 2.127 2.127 0 0 0 358.6 64 A 2.776 2.776 0 0 0 359.41 63.871 Q 359.76 63.764 360.134 63.57 A 6.142 6.142 0 0 0 360.6 63.3 A 4.022 4.022 0 0 0 361.003 63 Q 361.716 62.413 363.114 60.977 A 102.745 102.745 0 0 0 364.1 59.95 A 37.845 37.845 0 0 0 366.173 57.552 Q 367.194 56.275 368.277 54.741 A 84.477 84.477 0 0 0 370 52.2 A 3.984 3.984 0 0 1 370.106 52.098 Q 370.26 51.955 370.345 51.915 A 0.138 0.138 0 0 1 370.399 51.9 Q 370.6 51.9 370.6 52.1 Q 370.6 52.3 370.3 52.9 Q 367.808 57.129 365.345 59.96 A 27.355 27.355 0 0 1 363.75 61.65 A 25.626 25.626 0 0 1 362.398 62.877 Q 360.106 64.8 358.7 64.8 Q 357.069 64.8 356.047 64.19 A 3.126 3.126 0 0 1 355.05 63.25 Q 354 61.7 354 59.6 A 16.34 16.34 0 0 1 354.616 55.209 A 18.422 18.422 0 0 1 354.75 54.75 Q 355.5 52.3 356.45 50.25 Q 357.4 48.2 358 47.1 Q 359.381 44.5 359.64 43.352 A 2.107 2.107 0 0 0 359.7 42.9 Q 359.7 41.884 358.846 42.148 A 1.936 1.936 0 0 0 358.7 42.2 A 2.735 2.735 0 0 0 358.233 42.437 Q 357.759 42.729 357.14 43.289 A 17.646 17.646 0 0 0 356.5 43.9 A 42.846 42.846 0 0 0 354.893 45.602 A 55.114 55.114 0 0 0 353.6 47.1 A 123.136 123.136 0 0 0 352.193 48.819 Q 351.533 49.641 350.959 50.388 A 72.211 72.211 0 0 0 350.95 50.4 A 85.136 85.136 0 0 0 350.488 51.008 Q 349.872 51.826 349.603 52.236 A 4.917 4.917 0 0 0 349.5 52.4 A 65.468 65.468 0 0 0 347.921 54.756 Q 346.522 56.951 345.769 58.615 A 16.833 16.833 0 0 0 345.6 59 Q 344.5 61.6 344 62.8 Q 343.805 63.288 342.942 63.3 A 3.154 3.154 0 0 1 342.9 63.3 A 2.365 2.365 0 0 1 341.895 63.066 Q 341.572 62.916 341.249 62.669 A 4.529 4.529 0 0 1 341.1 62.55 A 2.392 2.392 0 0 1 340.319 61.291 Q 340.215 60.901 340.202 60.435 A 4.833 4.833 0 0 1 340.2 60.3 A 2.427 2.427 0 0 1 340.253 59.839 Q 340.402 59.084 340.973 57.744 A 28.917 28.917 0 0 1 341.1 57.45 Q 341.719 56.041 342.527 54.277 A 355.536 355.536 0 0 1 343.3 52.6 Q 344.5 49.9 345.7 47.15 Q 346.619 45.045 347.244 43.613 A 2705.596 2705.596 0 0 1 347.6 42.8 A 5.808 5.808 0 0 1 347.345 42.569 Q 346.9 42.139 346.9 41.9 A 1.494 1.494 0 0 1 346.914 41.689 Q 346.938 41.525 347 41.4 Q 347.2 40.9 347.8 39.75 L 349 37.45 A 70.61 70.61 0 0 1 349.211 37.049 Q 349.622 36.274 349.788 36.019 A 2.1 2.1 0 0 1 349.8 36 A 1.978 1.978 0 0 1 349.973 35.9 Q 350.361 35.696 351.315 35.314 A 48.176 48.176 0 0 1 351.35 35.3 A 7.077 7.077 0 0 1 352.817 34.883 A 5.98 5.98 0 0 1 353.8 34.8 Z M 285.7 30.2 L 291.8 30.2 Q 292.177 29.748 292.753 28.784 A 34.513 34.513 0 0 0 293.15 28.1 Q 294 26.6 294.9 24.9 A 111.417 111.417 0 0 0 295.64 23.479 Q 295.973 22.827 296.262 22.237 A 64.874 64.874 0 0 0 296.45 21.85 A 27.099 27.099 0 0 0 296.671 21.381 Q 297.088 20.469 297.1 20.214 A 0.31 0.31 0 0 0 297.1 20.2 Q 297.1 19.3 296.5 18.9 L 296.1 18.7 A 0.3 0.3 0 0 1 296.067 18.698 Q 296.033 18.695 296.017 18.682 A 0.038 0.038 0 0 1 296 18.65 Q 296 18.6 295.9 18.6 Q 295.817 18.517 295.803 18.366 A 0.703 0.703 0 0 1 295.8 18.3 A 0.464 0.464 0 0 1 295.87 18.045 Q 295.924 17.96 296.019 17.897 A 0.738 0.738 0 0 1 296.1 17.85 A 2.032 2.032 0 0 1 296.269 17.774 Q 296.459 17.7 296.6 17.7 Q 297.2 17.7 297.75 17.95 Q 298.257 18.18 299.399 18.792 A 99.947 99.947 0 0 1 299.6 18.9 Q 300.2 19.2 300.85 19.45 A 5.955 5.955 0 0 1 301.302 19.645 Q 301.52 19.75 301.699 19.862 A 2.967 2.967 0 0 1 301.9 20 L 302.7 20.5 Q 302.241 21.266 301.4 22.5 A 104.416 104.416 0 0 1 300.85 23.3 Q 299.6 25.1 298.4 27 Q 297.2 28.9 296.4 30.2 L 314.3 30.2 Q 315.5 30.2 315.5 30.5 Q 315.5 30.764 314.84 31.068 A 5.19 5.19 0 0 1 314.65 31.15 Q 314.019 31.41 313.636 31.477 A 1.389 1.389 0 0 1 313.4 31.5 Q 312.405 31.577 310.794 31.595 A 93.926 93.926 0 0 1 309.75 31.6 Q 307.4 31.6 304.75 31.65 Q 302.1 31.7 299.85 31.85 Q 297.6 32 296.7 32.3 A 3.491 3.491 0 0 0 295.774 32.795 Q 294.947 33.392 294.016 34.576 A 19.563 19.563 0 0 0 293.3 35.55 Q 291.4 38.3 289.65 42 Q 287.9 45.7 286.5 49.2 Q 286.2 50 285.45 51.9 A 45.871 45.871 0 0 0 284.552 54.392 A 54.573 54.573 0 0 0 284.05 56 Q 283.4 58.2 283.4 60.1 Q 283.4 61.754 283.991 62.564 A 1.978 1.978 0 0 0 284.1 62.7 A 2.434 2.434 0 0 0 284.764 63.243 A 2.128 2.128 0 0 0 285.8 63.5 A 2.573 2.573 0 0 0 286.729 63.311 Q 287.457 63.029 288.292 62.326 A 10.084 10.084 0 0 0 288.55 62.1 A 29.9 29.9 0 0 0 289.762 60.937 Q 290.419 60.273 291.129 59.487 A 59.107 59.107 0 0 0 292 58.5 Q 294 56 295.75 53.45 A 156.798 156.798 0 0 0 296.456 52.413 Q 297.609 50.703 298 50 A 21.265 21.265 0 0 1 298.257 49.592 Q 298.834 48.7 299 48.7 A 0.3 0.3 0 0 1 299.033 48.702 Q 299.067 48.705 299.084 48.718 A 0.038 0.038 0 0 1 299.1 48.75 L 299.1 48.8 Q 299.1 49.078 298.842 49.743 A 10.89 10.89 0 0 1 298.8 49.85 Q 298.57 50.424 298.341 50.852 A 6.004 6.004 0 0 1 298.2 51.1 Q 296.4 53.7 294.3 56.9 Q 292.2 60.1 290 62.4 A 11.345 11.345 0 0 1 288.365 63.771 Q 286.556 65 284.7 65 A 4.682 4.682 0 0 1 281.396 63.652 A 6.415 6.415 0 0 1 281.05 63.3 Q 279.5 61.6 279.5 58.4 Q 279.5 56.658 280.106 54.364 A 29.787 29.787 0 0 1 280.65 52.55 Q 281.8 49.1 283.55 45.25 Q 285.3 41.4 287.25 37.95 A 212.918 212.918 0 0 1 288.649 35.51 Q 289.206 34.555 289.719 33.703 A 109.732 109.732 0 0 1 290.7 32.1 A 98.588 98.588 0 0 1 289.289 32.09 Q 288.646 32.081 288.074 32.063 A 55.216 55.216 0 0 1 287.7 32.05 Q 286.603 32.008 285.862 32.072 A 7.063 7.063 0 0 0 285.6 32.1 A 3.027 3.027 0 0 1 285.329 32.089 Q 284.868 32.047 284.75 31.85 Q 284.631 31.652 284.669 31.548 A 0.131 0.131 0 0 1 284.7 31.5 A 0.716 0.716 0 0 1 284.733 31.299 Q 284.789 31.107 284.944 30.86 A 3.721 3.721 0 0 1 285.05 30.7 A 2.346 2.346 0 0 1 285.209 30.496 Q 285.382 30.299 285.543 30.233 A 0.413 0.413 0 0 1 285.7 30.2 Z M 301.75 64.73 A 8.37 8.37 0 0 0 303.5 64.9 A 4.304 4.304 0 0 0 303.906 64.88 Q 304.397 64.834 304.934 64.677 A 8.102 8.102 0 0 0 305.95 64.3 Q 306.688 63.972 307.412 63.434 A 10.785 10.785 0 0 0 308.6 62.4 A 16.612 16.612 0 0 0 308.72 62.279 Q 309.982 60.99 311.7 58.7 Q 313.5 56.3 315.15 53.85 A 73.781 73.781 0 0 0 315.299 53.628 Q 316.837 51.327 317.6 49.8 Q 317.9 49.3 317.55 49.4 Q 317.277 49.478 316.851 49.983 A 7.13 7.13 0 0 0 316.6 50.3 Q 314.3 53.9 311.75 57.15 A 74.643 74.643 0 0 1 311.525 57.435 Q 309.116 60.475 307.3 62.1 Q 305.5 63.7 303.2 63.7 A 3.465 3.465 0 0 1 302.865 63.684 A 2.643 2.643 0 0 1 301.35 63.05 Q 300.799 62.573 300.653 61.583 A 5.371 5.371 0 0 1 300.6 60.8 A 19.495 19.495 0 0 1 300.804 58.004 A 22.713 22.713 0 0 1 302.05 53.25 Q 303.5 49.4 305.8 45.9 A 56.848 56.848 0 0 1 306.097 45.453 Q 307.134 43.906 308.172 42.583 A 34.509 34.509 0 0 1 310.4 40 Q 309.7 39.5 309.05 39 Q 308.4 38.5 307.6 38.5 A 2.566 2.566 0 0 0 307.23 38.527 Q 306.632 38.614 306.072 38.985 A 4.273 4.273 0 0 0 305.35 39.6 Q 304.694 40.288 303.94 41.209 A 46.573 46.573 0 0 0 303 42.4 Q 301.9 43.9 300.85 45.4 L 299.1 47.9 Q 298.841 48.159 299.475 48.492 A 3.82 3.82 0 0 0 299.7 48.6 A 18.574 18.574 0 0 0 298.892 50.358 A 23.156 23.156 0 0 0 298.05 52.9 A 20.065 20.065 0 0 0 297.863 53.648 A 17.596 17.596 0 0 0 297.4 57.6 A 11.608 11.608 0 0 0 297.56 59.562 A 8.688 8.688 0 0 0 298.75 62.75 Q 299.72 64.295 301.75 64.73 Z M 352.3 93.1 A 6.991 6.991 0 0 0 353.92 92.886 Q 355.497 92.508 357.571 91.457 A 33.005 33.005 0 0 0 358.8 90.8 A 28.15 28.15 0 0 0 361.414 89.151 Q 362.711 88.236 364.08 87.09 A 51.228 51.228 0 0 0 365 86.3 Q 368.3 83.4 371.55 79.85 A 163.03 163.03 0 0 0 376.931 73.676 A 148.027 148.027 0 0 0 377.65 72.8 Q 380.311 69.532 382.231 66.744 A 66.015 66.015 0 0 0 382.5 66.35 Q 384.5 63.4 385.3 61.8 A 25.318 25.318 0 0 0 383.29 62.342 Q 381.225 62.984 378.6 64.1 Q 374.6 65.8 370.15 68.45 Q 365.7 71.1 361.5 74.4 Q 357.3 77.7 354.1 81.4 Q 352.3 83.6 351.05 86.05 A 14.34 14.34 0 0 0 350.338 87.669 Q 349.8 89.153 349.8 90.4 Q 349.8 92.695 351.606 93.039 A 3.71 3.71 0 0 0 352.3 93.1 Z M 297.3 93.1 A 6.991 6.991 0 0 0 298.92 92.886 Q 300.497 92.508 302.571 91.457 A 33.005 33.005 0 0 0 303.8 90.8 A 28.15 28.15 0 0 0 306.414 89.151 Q 307.711 88.236 309.08 87.09 A 51.228 51.228 0 0 0 310 86.3 Q 313.3 83.4 316.55 79.85 A 163.03 163.03 0 0 0 321.931 73.676 A 148.027 148.027 0 0 0 322.65 72.8 Q 325.311 69.532 327.231 66.744 A 66.015 66.015 0 0 0 327.5 66.35 Q 329.5 63.4 330.3 61.8 A 25.318 25.318 0 0 0 328.29 62.342 Q 326.225 62.984 323.6 64.1 Q 319.6 65.8 315.15 68.45 Q 310.7 71.1 306.5 74.4 Q 302.3 77.7 299.1 81.4 Q 297.4 83.6 296.1 86.1 A 15.545 15.545 0 0 0 295.415 87.594 Q 294.8 89.163 294.8 90.4 Q 294.8 92.695 296.606 93.039 A 3.71 3.71 0 0 0 297.3 93.1 Z M 74.4 31.9 L 77.7 31.9 Q 78.4 30.4 80.25 27.1 Q 82.1 23.8 84.4 19.9 Q 86.7 16 88.8 12.6 A 207.656 207.656 0 0 1 89.794 11.006 Q 90.761 9.472 91.488 8.39 A 47.889 47.889 0 0 1 92.1 7.5 A 10.052 10.052 0 0 0 92.373 7.047 Q 92.768 6.347 92.798 5.96 A 0.793 0.793 0 0 0 92.8 5.9 Q 92.8 5.205 91.666 5.742 A 5.084 5.084 0 0 0 91.65 5.75 Q 90.5 6.3 89.1 7.5 A 44.622 44.622 0 0 0 87.68 8.776 Q 86.112 10.243 84.09 12.347 A 151.661 151.661 0 0 0 83.8 12.65 Q 80.6 16 77.05 19.85 Q 73.5 23.7 70.45 27.1 Q 68.115 29.703 66.571 31.427 A 2879.872 2879.872 0 0 0 65.7 32.4 A 56.174 56.174 0 0 1 68.903 32.072 A 48.452 48.452 0 0 1 70.1 32 Q 72.2 31.9 74.4 31.9 Z M 236.5 31.9 L 239.8 31.9 Q 240.5 30.4 242.35 27.1 Q 244.2 23.8 246.5 19.9 Q 248.8 16 250.9 12.6 A 207.656 207.656 0 0 1 251.894 11.006 Q 252.861 9.472 253.588 8.39 A 47.889 47.889 0 0 1 254.2 7.5 A 10.052 10.052 0 0 0 254.473 7.047 Q 254.868 6.347 254.898 5.96 A 0.793 0.793 0 0 0 254.9 5.9 Q 254.9 5.205 253.766 5.742 A 5.084 5.084 0 0 0 253.75 5.75 Q 252.6 6.3 251.2 7.5 A 44.622 44.622 0 0 0 249.78 8.776 Q 248.212 10.243 246.19 12.347 A 151.661 151.661 0 0 0 245.9 12.65 Q 242.7 16 239.15 19.85 Q 235.6 23.7 232.55 27.1 Q 230.215 29.703 228.671 31.427 A 2879.872 2879.872 0 0 0 227.8 32.4 A 56.174 56.174 0 0 1 231.003 32.072 A 48.452 48.452 0 0 1 232.2 32 Q 234.3 31.9 236.5 31.9 Z M 314.5 28.2 L 319.8 27.3 A 7.291 7.291 0 0 1 319.986 27.261 Q 320.7 27.122 320.7 27.3 A 0.442 0.442 0 0 1 320.544 27.633 Q 320.397 27.769 320.112 27.865 A 2.475 2.475 0 0 1 320 27.9 A 9.751 9.751 0 0 0 318.327 28.477 A 7.978 7.978 0 0 0 317.2 29.1 Q 316 29.9 315.2 31.3 A 0.992 0.992 0 0 0 315.082 31.554 Q 315 31.816 315 32.2 Q 315 32.8 315.25 33.35 Q 315.5 33.9 315.8 34.3 A 2.033 2.033 0 0 1 315.856 34.378 Q 316.075 34.7 315.85 34.7 Q 315.611 34.7 315.236 34.609 A 5.454 5.454 0 0 1 315.2 34.6 A 6.013 6.013 0 0 1 312.716 32.734 A 7.113 7.113 0 0 1 312.65 32.65 Q 311.833 31.6 311.833 30.399 A 3.786 3.786 0 0 1 311.9 29.7 Q 312.052 29.018 312.289 28.71 A 0.772 0.772 0 0 1 312.45 28.55 A 0.845 0.845 0 0 1 312.668 28.448 Q 313.053 28.318 313.921 28.242 A 20.2 20.2 0 0 1 314.5 28.2 Z" vector-effect="non-scaling-stroke"/></g></svg>